<svg xmlns="http://www.w3.org/2000/svg" width="32" height="32" viewBox="0 0 32 32">
  <g id="Сгруппировать_53" data-name="Сгруппировать 53" transform="translate(-940 -977)">
    <circle id="Эллипс_6" data-name="Эллипс 6" cx="16" cy="16" r="16" transform="translate(940 977)" fill="#fff"/>
    <g id="Icon_ionic-ios-pause" data-name="Icon ionic-ios-pause" transform="translate(941.82 979.25)">
      <path id="Контур_3" data-name="Контур 3" d="M12.19,20.949H9.359A.357.357,0,0,1,9,20.594V7.1a.357.357,0,0,1,.359-.355H12.19a.357.357,0,0,1,.359.355V20.594A.357.357,0,0,1,12.19,20.949Z" transform="translate(0)"/>
      <path id="Контур_4" data-name="Контур 4" d="M24.565,20.949H21.734a.357.357,0,0,1-.359-.355V7.1a.357.357,0,0,1,.359-.355h2.831a.357.357,0,0,1,.359.355V20.594A.357.357,0,0,1,24.565,20.949Z" transform="translate(-5.566)"/>
    </g>
  </g>
</svg>
